<svg width="246" height="245" viewBox="0 0 246 245" fill="none" xmlns="http://www.w3.org/2000/svg">
<path fill-rule="evenodd" clip-rule="evenodd" d="M145.551 34.0927C143.463 34.0927 141.77 32.4001 141.77 30.3122V3.78091C141.77 1.69297 143.463 0.000358582 145.551 0.000358582C147.639 0.000358582 149.331 1.69297 149.331 3.78091V30.3122C149.331 32.4001 147.639 34.0927 145.551 34.0927Z" fill="black"/>
<path fill-rule="evenodd" clip-rule="evenodd" d="M155.002 13.2321H90.7331C70.8977 13.2321 54.8179 29.3119 54.8179 49.1473V86.9528C54.8179 88.5547 54.9227 90.1321 55.126 91.6785H62.771C62.5132 90.1416 62.379 88.5629 62.379 86.9528V49.1473C62.379 33.4878 75.0735 20.7932 90.7331 20.7932H155.002C170.662 20.7932 183.357 33.4878 183.357 49.1473V86.9528C183.357 88.5629 183.222 90.1416 182.964 91.6785H190.609C190.813 90.1321 190.918 88.5547 190.918 86.9528V49.1473C190.918 29.3119 174.838 13.2321 155.002 13.2321ZM188.761 99.2396H180.563C175.985 108.746 166.26 115.307 155.002 115.307H90.7331C79.4755 115.307 69.7502 108.746 65.1721 99.2396H56.9745C61.9928 113.024 75.2134 122.868 90.7331 122.868H155.002C170.522 122.868 183.743 113.024 188.761 99.2396Z" fill="black"/>
<path fill-rule="evenodd" clip-rule="evenodd" d="M98.2942 34.0923C96.2063 34.0923 94.5137 32.3997 94.5137 30.3118V3.78054C94.5137 1.6926 96.2063 -7.62939e-06 98.2942 -7.62939e-06C100.382 -7.62939e-06 102.075 1.6926 102.075 3.78054V30.3118C102.075 32.3997 100.382 34.0923 98.2942 34.0923Z" fill="black"/>
<path fill-rule="evenodd" clip-rule="evenodd" d="M112.471 54.8177C112.471 54.2957 112.894 53.8726 113.416 53.8726H152.167C152.689 53.8726 153.112 54.2957 153.112 54.8177C153.112 55.3397 152.689 55.7628 152.167 55.7628H113.416C112.894 55.7628 112.471 55.3397 112.471 54.8177Z" fill="black"/>
<mask id="mask0_107_64" style="mask-type:alpha" maskUnits="userSpaceOnUse" x="85" y="37" width="31" height="32">
<path d="M85.0623 42.7144L111.067 37.8056L115.976 63.8102L89.9711 68.7189L85.0623 42.7144Z" fill="#D9D9D9"/>
</mask>
<g mask="url(#mask0_107_64)">
<path d="M99.0916 60.2642L91.7497 55.2539L93.0023 53.4184L98.5087 57.1761L106.573 45.3582L108.409 46.6108L99.0916 60.2642Z" fill="#63E957"/>
</g>
<path fill-rule="evenodd" clip-rule="evenodd" d="M112.471 71.8302C112.471 71.3082 112.894 70.8851 113.416 70.8851H152.167C152.689 70.8851 153.112 71.3082 153.112 71.8302C153.112 72.3522 152.689 72.7753 152.167 72.7753H113.416C112.894 72.7753 112.471 72.3522 112.471 71.8302Z" fill="black"/>
<mask id="mask1_107_64" style="mask-type:alpha" maskUnits="userSpaceOnUse" x="85" y="54" width="31" height="32">
<path d="M85.0623 59.7265L111.067 54.8177L115.976 80.8223L89.971 85.7311L85.0623 59.7265Z" fill="#D9D9D9"/>
</mask>
<g mask="url(#mask1_107_64)">
<path d="M99.0916 77.2768L91.7497 72.2666L93.0022 70.4311L98.5087 74.1888L106.573 62.3708L108.409 63.6234L99.0916 77.2768Z" fill="#63E957"/>
</g>
<path fill-rule="evenodd" clip-rule="evenodd" d="M112.471 86.9525C112.471 86.4305 112.894 86.0073 113.416 86.0073H152.167C152.689 86.0073 153.112 86.4305 153.112 86.9525C153.112 87.4744 152.689 87.8976 152.167 87.8976H113.416C112.894 87.8976 112.471 87.4744 112.471 86.9525Z" fill="black"/>
<mask id="mask2_107_64" style="mask-type:alpha" maskUnits="userSpaceOnUse" x="85" y="69" width="31" height="32">
<path d="M85.0623 74.8488L111.067 69.94L115.976 95.9446L89.971 100.853L85.0623 74.8488Z" fill="#D9D9D9"/>
</mask>
<g mask="url(#mask2_107_64)">
<path d="M99.0916 92.399L91.7497 87.3888L93.0022 85.5533L98.5087 89.311L106.573 77.493L108.409 78.7456L99.0916 92.399Z" fill="#63E957"/>
</g>
<path fill-rule="evenodd" clip-rule="evenodd" d="M119.494 177.686C118.45 177.686 117.604 176.839 117.604 175.796V158.783C117.604 157.739 118.45 156.893 119.494 156.893C120.538 156.893 121.384 157.739 121.384 158.783V175.796C121.384 176.839 120.538 177.686 119.494 177.686Z" fill="black"/>
<path fill-rule="evenodd" clip-rule="evenodd" d="M117.816 174.926C118.296 173.999 119.437 173.637 120.364 174.117L135.47 181.942C136.397 182.422 136.759 183.563 136.279 184.49C135.799 185.417 134.658 185.779 133.731 185.299L118.625 177.474C117.698 176.994 117.336 175.853 117.816 174.926Z" fill="black"/>
<path d="M15.177 153.511C20.4925 153.511 25.0852 154.513 28.9552 156.518C32.8719 158.477 35.856 161.298 37.9076 164.981C40.0058 168.665 41.0549 173.001 41.0549 177.99C41.0549 182.979 40.0058 187.315 37.9076 190.999C35.856 194.636 32.8719 197.433 28.9552 199.392C25.0852 201.303 20.4925 202.259 15.177 202.259H0V153.511H15.177ZM15.177 197.014C21.4716 197.014 26.2742 195.359 29.5847 192.048C32.8952 188.691 34.5504 184.005 34.5504 177.99C34.5504 171.929 32.8719 167.196 29.5147 163.792C26.2042 160.388 21.425 158.687 15.177 158.687H6.36455V197.014H15.177Z" fill="black"/>
<path d="M84.9794 153.511L69.103 183.865V202.259H62.7385V183.865L46.7921 153.511H53.8561L65.8858 178.2L77.9155 153.511H84.9794Z" fill="black"/>
<path d="M120.393 202.841C115.014 202.841 110.107 201.594 105.671 199.099C101.235 196.548 97.7144 193.027 95.1083 188.536C92.5577 183.989 91.2824 178.888 91.2824 173.232C91.2824 167.577 92.5577 162.503 95.1083 158.012C97.7144 153.465 101.235 149.944 105.671 147.449C110.107 144.898 115.014 143.623 120.393 143.623C125.827 143.623 130.761 144.898 135.197 147.449C139.633 149.944 143.126 153.437 145.677 157.929C148.228 162.42 149.503 167.521 149.503 173.232C149.503 178.943 148.228 184.045 145.677 188.536C143.126 193.027 139.633 196.548 135.197 199.099C130.761 201.594 125.827 202.841 120.393 202.841ZM120.393 196.271C124.44 196.271 128.072 195.328 131.288 193.443C134.56 191.558 137.11 188.869 138.94 185.375C140.825 181.882 141.768 177.834 141.768 173.232C141.768 168.575 140.825 164.527 138.94 161.089C137.11 157.596 134.587 154.907 131.371 153.021C128.155 151.136 124.496 150.194 120.393 150.194C116.289 150.194 112.63 151.136 109.414 153.021C106.198 154.907 103.647 157.596 101.762 161.089C99.9323 164.527 99.0174 168.575 99.0174 173.232C99.0174 177.834 99.9323 181.882 101.762 185.375C103.647 188.869 106.198 191.558 109.414 193.443C112.685 195.328 116.345 196.271 120.393 196.271Z" fill="black"/>
<path d="M185.807 202.259L174.197 182.326H166.504V202.259H160.139V153.511H175.876C179.559 153.511 182.66 154.14 185.178 155.399C187.742 156.658 189.654 158.36 190.913 160.505C192.172 162.65 192.801 165.098 192.801 167.849C192.801 171.206 191.822 174.167 189.864 176.731C187.952 179.296 185.061 180.997 181.191 181.837L193.431 202.259H185.807ZM166.504 177.221H175.876C179.326 177.221 181.914 176.381 183.639 174.703C185.364 172.978 186.227 170.693 186.227 167.849C186.227 164.958 185.364 162.72 183.639 161.134C181.96 159.549 179.373 158.757 175.876 158.757H166.504V177.221Z" fill="black"/>
<path d="M219.266 153.511C224.582 153.511 229.175 154.513 233.045 156.518C236.961 158.477 239.945 161.298 241.997 164.981C244.095 168.665 245.144 173.001 245.144 177.99C245.144 182.979 244.095 187.315 241.997 190.999C239.945 194.636 236.961 197.433 233.045 199.392C229.175 201.303 224.582 202.259 219.266 202.259H204.089V153.511H219.266ZM219.266 197.014C225.561 197.014 230.364 195.359 233.674 192.048C236.985 188.691 238.64 184.005 238.64 177.99C238.64 171.929 236.961 167.196 233.604 163.792C230.294 160.388 225.514 158.687 219.266 158.687H210.454V197.014H219.266Z" fill="black"/>
<path d="M32.1946 227.86C32.1946 230.14 31.7792 232.046 30.9485 233.578C30.1179 235.101 28.9134 236.25 27.3351 237.025C25.766 237.791 23.86 238.174 21.6172 238.174H16.1208V217.933H22.2263C24.2846 217.933 26.0567 218.312 27.5427 219.069C29.0287 219.816 30.1732 220.928 30.9762 222.405C31.7885 223.873 32.1946 225.691 32.1946 227.86ZM29.7164 227.943C29.7164 226.125 29.4118 224.625 28.8026 223.443C28.2027 222.262 27.3166 221.385 26.1444 220.813C24.9814 220.232 23.5554 219.941 21.8664 219.941H18.4744V236.153H21.3403C24.1277 236.153 26.2182 235.465 27.612 234.09C29.0149 232.715 29.7164 230.666 29.7164 227.943Z" fill="black"/>
<path d="M42.1905 222.724C43.4827 222.724 44.5903 223.01 45.5133 223.582C46.4362 224.154 47.1423 224.957 47.6315 225.991C48.1207 227.015 48.3653 228.215 48.3653 229.591V231.017H37.8848C37.9125 232.798 38.3555 234.155 39.2139 235.087C40.0723 236.019 41.2814 236.485 42.8412 236.485C43.8011 236.485 44.6503 236.398 45.3887 236.222C46.127 236.047 46.8931 235.788 47.6869 235.447V237.468C46.9208 237.81 46.1593 238.059 45.4025 238.216C44.6549 238.373 43.7688 238.451 42.7443 238.451C41.286 238.451 40.0123 238.156 38.9231 237.565C37.8432 236.965 37.0033 236.088 36.4034 234.935C35.8034 233.781 35.5035 232.369 35.5035 230.698C35.5035 229.064 35.7758 227.652 36.3203 226.462C36.8741 225.262 37.6494 224.339 38.6462 223.693C39.6523 223.047 40.8337 222.724 42.1905 222.724ZM42.1628 224.606C40.9352 224.606 39.9569 225.008 39.2277 225.811C38.4986 226.614 38.0648 227.735 37.9263 229.175H45.9563C45.9471 228.271 45.804 227.477 45.5271 226.794C45.2594 226.102 44.8487 225.566 44.2949 225.188C43.7411 224.8 43.0304 224.606 42.1628 224.606Z" fill="black"/>
<path d="M62.0855 234.021C62.0855 234.99 61.8409 235.807 61.3517 236.471C60.8717 237.127 60.1795 237.621 59.275 237.953C58.3797 238.285 57.309 238.451 56.063 238.451C55.0015 238.451 54.0832 238.368 53.3079 238.202C52.5326 238.036 51.8542 237.801 51.2727 237.496V235.378C51.8911 235.682 52.6295 235.959 53.4879 236.208C54.3462 236.458 55.2231 236.582 56.1184 236.582C57.429 236.582 58.3797 236.37 58.9704 235.945C59.5611 235.521 59.8564 234.944 59.8564 234.215C59.8564 233.799 59.7365 233.435 59.4965 233.121C59.2657 232.798 58.8735 232.489 58.3197 232.193C57.7659 231.889 56.9998 231.557 56.0214 231.197C55.0523 230.827 54.2124 230.463 53.5017 230.103C52.8002 229.734 52.2557 229.286 51.868 228.76C51.4896 228.234 51.3004 227.551 51.3004 226.711C51.3004 225.428 51.8172 224.445 52.851 223.762C53.894 223.07 55.26 222.724 56.949 222.724C57.8628 222.724 58.7166 222.816 59.5103 223C60.3133 223.176 61.0609 223.416 61.7532 223.72L60.9779 225.562C60.3502 225.294 59.6811 225.068 58.9704 224.883C58.2597 224.699 57.5351 224.606 56.7968 224.606C55.7353 224.606 54.9185 224.782 54.3462 225.133C53.7832 225.483 53.5017 225.963 53.5017 226.572C53.5017 227.043 53.6309 227.431 53.8893 227.735C54.157 228.04 54.5816 228.326 55.1631 228.594C55.7445 228.861 56.5106 229.175 57.4613 229.535C58.412 229.886 59.2334 230.251 59.9257 230.629C60.6179 230.998 61.1486 231.45 61.5178 231.986C61.8962 232.512 62.0855 233.19 62.0855 234.021Z" fill="black"/>
<path d="M68.0802 223V238.174H65.782V223H68.0802ZM66.9588 217.324C67.3372 217.324 67.6603 217.449 67.928 217.698C68.2048 217.938 68.3433 218.316 68.3433 218.833C68.3433 219.341 68.2048 219.719 67.928 219.968C67.6603 220.218 67.3372 220.342 66.9588 220.342C66.5619 220.342 66.2297 220.218 65.962 219.968C65.7036 219.719 65.5743 219.341 65.5743 218.833C65.5743 218.316 65.7036 217.938 65.962 217.698C66.2297 217.449 66.5619 217.324 66.9588 217.324Z" fill="black"/>
<path d="M77.1901 244.986C75.1965 244.986 73.6597 244.612 72.5798 243.865C71.4999 243.126 70.96 242.088 70.96 240.749C70.96 239.799 71.2599 238.987 71.8599 238.313C72.469 237.639 73.309 237.191 74.3796 236.97C73.9827 236.785 73.6412 236.508 73.3551 236.139C73.0782 235.77 72.9398 235.345 72.9398 234.865C72.9398 234.312 73.0921 233.827 73.3966 233.412C73.7105 232.987 74.1858 232.581 74.8227 232.193C74.0289 231.87 73.3828 231.326 72.8844 230.56C72.3952 229.784 72.1506 228.884 72.1506 227.86C72.1506 226.771 72.3767 225.843 72.829 225.077C73.2813 224.302 73.9366 223.711 74.795 223.305C75.6533 222.899 76.6917 222.696 77.91 222.696C78.1777 222.696 78.4454 222.71 78.713 222.737C78.9899 222.756 79.253 222.788 79.5022 222.834C79.7514 222.871 79.9683 222.917 80.1529 222.973H85.3585V224.454L82.5619 224.8C82.8388 225.16 83.0695 225.594 83.2541 226.102C83.4387 226.609 83.531 227.172 83.531 227.791C83.531 229.304 83.0188 230.509 81.9942 231.404C80.9697 232.29 79.5622 232.733 77.7716 232.733C77.347 232.733 76.9132 232.696 76.4702 232.623C76.0179 232.872 75.6718 233.149 75.4318 233.453C75.2011 233.758 75.0857 234.109 75.0857 234.505C75.0857 234.801 75.1734 235.036 75.3488 235.212C75.5334 235.387 75.7964 235.516 76.1379 235.599C76.4794 235.673 76.8901 235.71 77.3701 235.71H80.0421C81.6943 235.71 82.9588 236.056 83.8356 236.748C84.7217 237.441 85.1647 238.451 85.1647 239.78C85.1647 241.46 84.4817 242.748 83.1157 243.643C81.7497 244.538 79.7745 244.986 77.1901 244.986ZM77.2593 243.186C78.5146 243.186 79.553 243.057 80.3744 242.798C81.2051 242.549 81.8235 242.185 82.2296 241.705C82.645 241.234 82.8526 240.671 82.8526 240.016C82.8526 239.407 82.7142 238.945 82.4373 238.631C82.1604 238.327 81.7543 238.124 81.2189 238.022C80.6836 237.911 80.0283 237.856 79.253 237.856H76.6225C75.9395 237.856 75.3441 237.962 74.8365 238.174C74.3289 238.387 73.9366 238.7 73.6597 239.116C73.392 239.531 73.2582 240.048 73.2582 240.666C73.2582 241.488 73.6043 242.111 74.2966 242.535C74.9888 242.969 75.9764 243.186 77.2593 243.186ZM77.8547 231.058C78.953 231.058 79.7791 230.781 80.3329 230.227C80.8867 229.674 81.1636 228.866 81.1636 227.805C81.1636 226.669 80.882 225.82 80.319 225.257C79.756 224.685 78.9253 224.399 77.827 224.399C76.7748 224.399 75.9625 224.694 75.3903 225.285C74.8273 225.866 74.5458 226.72 74.5458 227.846C74.5458 228.88 74.8319 229.674 75.4041 230.227C75.9764 230.781 76.7932 231.058 77.8547 231.058Z" fill="black"/>
<path d="M95.5344 222.724C97.3343 222.724 98.6957 223.167 99.6187 224.053C100.542 224.929 101.003 226.342 101.003 228.289V238.174H98.7326V228.441C98.7326 227.177 98.4418 226.231 97.8604 225.603C97.2881 224.976 96.4067 224.662 95.216 224.662C93.5362 224.662 92.3548 225.137 91.6718 226.088C90.9887 227.039 90.6472 228.418 90.6472 230.227V238.174H88.349V223H90.2042L90.5503 225.188H90.6749C90.998 224.653 91.4087 224.205 91.9071 223.845C92.4055 223.476 92.9639 223.199 93.5823 223.014C94.2007 222.82 94.8514 222.724 95.5344 222.724Z" fill="black"/>
<path d="M118.614 228.081L123.999 217.933H126.533L119.79 230.324V238.174H117.437V230.435L110.681 217.933H113.256L118.614 228.081Z" fill="black"/>
<path d="M142.053 230.56C142.053 231.806 141.891 232.918 141.568 233.896C141.245 234.875 140.779 235.701 140.17 236.375C139.561 237.048 138.822 237.565 137.955 237.925C137.096 238.276 136.123 238.451 135.034 238.451C134.018 238.451 133.086 238.276 132.237 237.925C131.397 237.565 130.668 237.048 130.049 236.375C129.44 235.701 128.965 234.875 128.623 233.896C128.291 232.918 128.125 231.806 128.125 230.56C128.125 228.898 128.407 227.486 128.97 226.323C129.533 225.151 130.336 224.26 131.379 223.651C132.431 223.033 133.681 222.724 135.131 222.724C136.515 222.724 137.724 223.033 138.758 223.651C139.801 224.27 140.608 225.165 141.181 226.337C141.762 227.5 142.053 228.908 142.053 230.56ZM130.506 230.56C130.506 231.778 130.668 232.835 130.991 233.73C131.314 234.625 131.812 235.318 132.486 235.807C133.16 236.296 134.028 236.541 135.089 236.541C136.141 236.541 137.004 236.296 137.678 235.807C138.361 235.318 138.864 234.625 139.187 233.73C139.51 232.835 139.672 231.778 139.672 230.56C139.672 229.351 139.51 228.308 139.187 227.431C138.864 226.545 138.366 225.862 137.692 225.382C137.018 224.902 136.146 224.662 135.075 224.662C133.497 224.662 132.338 225.183 131.6 226.226C130.871 227.269 130.506 228.714 130.506 230.56Z" fill="black"/>
<path d="M158.556 223V238.174H156.673L156.341 236.042H156.216C155.902 236.568 155.496 237.011 154.998 237.371C154.499 237.731 153.936 237.999 153.309 238.174C152.69 238.359 152.03 238.451 151.329 238.451C150.129 238.451 149.123 238.257 148.311 237.87C147.499 237.482 146.885 236.882 146.469 236.07C146.063 235.258 145.86 234.215 145.86 232.941V223H148.186V232.775C148.186 234.039 148.472 234.985 149.045 235.613C149.617 236.231 150.489 236.541 151.661 236.541C152.787 236.541 153.683 236.328 154.347 235.904C155.021 235.479 155.505 234.856 155.801 234.035C156.096 233.204 156.244 232.189 156.244 230.989V223H158.556Z" fill="black"/>
<path d="M170.31 222.724C170.615 222.724 170.933 222.742 171.265 222.779C171.598 222.807 171.893 222.848 172.151 222.904L171.861 225.036C171.612 224.971 171.335 224.92 171.03 224.883C170.725 224.846 170.439 224.828 170.172 224.828C169.562 224.828 168.986 224.953 168.441 225.202C167.906 225.442 167.435 225.792 167.029 226.254C166.623 226.706 166.304 227.255 166.074 227.902C165.843 228.538 165.727 229.249 165.727 230.034V238.174H163.415V223H165.326L165.575 225.797H165.672C165.986 225.234 166.364 224.722 166.807 224.26C167.25 223.79 167.763 223.416 168.344 223.139C168.935 222.862 169.59 222.724 170.31 222.724Z" fill="black"/>
<path d="M198.803 227.86C198.803 230.14 198.387 232.046 197.557 233.578C196.726 235.101 195.521 236.25 193.943 237.025C192.374 237.791 190.468 238.174 188.225 238.174H182.729V217.933H188.834C190.893 217.933 192.665 218.312 194.151 219.069C195.637 219.816 196.781 220.928 197.584 222.405C198.397 223.873 198.803 225.691 198.803 227.86ZM196.324 227.943C196.324 226.125 196.02 224.625 195.411 223.443C194.811 222.262 193.925 221.385 192.752 220.813C191.59 220.232 190.164 219.941 188.474 219.941H185.082V236.153H187.948C190.736 236.153 192.826 235.465 194.22 234.09C195.623 232.715 196.324 230.666 196.324 227.943Z" fill="black"/>
<path d="M208.632 222.751C210.441 222.751 211.784 223.157 212.661 223.97C213.538 224.782 213.977 226.079 213.977 227.86V238.174H212.301L211.858 235.931H211.748C211.323 236.485 210.88 236.951 210.418 237.33C209.957 237.699 209.422 237.981 208.812 238.174C208.212 238.359 207.474 238.451 206.597 238.451C205.674 238.451 204.853 238.29 204.133 237.967C203.422 237.644 202.859 237.154 202.444 236.499C202.038 235.844 201.835 235.013 201.835 234.007C201.835 232.493 202.435 231.33 203.634 230.518C204.834 229.706 206.662 229.263 209.117 229.189L211.734 229.078V228.151C211.734 226.84 211.452 225.922 210.889 225.396C210.326 224.87 209.532 224.606 208.508 224.606C207.714 224.606 206.957 224.722 206.237 224.953C205.517 225.183 204.834 225.456 204.188 225.769L203.482 224.025C204.165 223.674 204.95 223.374 205.836 223.125C206.722 222.876 207.654 222.751 208.632 222.751ZM211.706 230.698L209.394 230.795C207.502 230.869 206.168 231.178 205.393 231.723C204.617 232.267 204.23 233.038 204.23 234.035C204.23 234.902 204.493 235.544 205.019 235.959C205.545 236.375 206.242 236.582 207.11 236.582C208.457 236.582 209.56 236.208 210.418 235.461C211.277 234.713 211.706 233.592 211.706 232.096V230.698Z" fill="black"/>
<path d="M216.316 223H218.781L222.131 231.806C222.325 232.323 222.505 232.821 222.671 233.301C222.837 233.772 222.985 234.224 223.114 234.658C223.243 235.092 223.345 235.512 223.419 235.918H223.516C223.645 235.456 223.829 234.852 224.069 234.104C224.309 233.347 224.568 232.576 224.845 231.792L228.015 223H230.493L223.889 240.403C223.539 241.336 223.128 242.148 222.657 242.84C222.196 243.532 221.633 244.063 220.968 244.432C220.304 244.811 219.501 245 218.559 245C218.125 245 217.742 244.972 217.41 244.917C217.078 244.871 216.792 244.815 216.552 244.751V242.909C216.755 242.955 216.999 242.997 217.285 243.034C217.581 243.071 217.885 243.089 218.199 243.089C218.771 243.089 219.265 242.978 219.681 242.757C220.105 242.545 220.47 242.231 220.774 241.816C221.079 241.4 221.342 240.906 221.563 240.334L222.394 238.202L216.316 223Z" fill="black"/>
</svg>
